Coordinates
version=1
nRows=16
nColumns=40
inDegrees=yes

Units are S.I. units (second, meters, Newtons, ...)
If the header above contains a line with 'inDegrees', this indicates whether rotational values are in degrees (yes) or radians (no).

endheader
time	pelvis_tilt	pelvis_list	pelvis_rotation	pelvis_tx	pelvis_ty	pelvis_tz	hip_flexion_r	hip_adduction_r	hip_rotation_r	knee_angle_r	knee_angle_r_beta	ankle_angle_r	subtalar_angle_r	mtp_angle_r	hip_flexion_l	hip_adduction_l	hip_rotation_l	knee_angle_l	knee_angle_l_beta	ankle_angle_l	subtalar_angle_l	mtp_angle_l	lumbar_extension	lumbar_bending	lumbar_rotation	arm_flex_r	arm_add_r	arm_rot_r	elbow_flex_r	pro_sup_r	wrist_flex_r	wrist_dev_r	arm_flex_l	arm_add_l	arm_rot_l	elbow_flex_l	pro_sup_l	wrist_flex_l	wrist_dev_l
      0.79000000	     -3.44190204	     10.68969828	    -89.89753065	      0.16958743	      0.94685347	      0.17622408	    -10.03594281	      7.20204773	      1.19836533	      6.61240647	      0.11540826	     14.38475586	      0.00000000	      0.00000000	     34.55998152	     -2.04279578	     -0.96208263	     -2.55873837	     -0.04465841	     -1.70626641	      0.00000000	      0.00000000	      1.76967519	      0.85601593	      1.37107904	      0.00000000	      0.00000000	      0.00000000	      0.00000000	      0.00000000	      0.00000000	      0.00000000	      0.00000000	      0.00000000	      0.00000000	      0.00000000	      0.00000000	      0.00000000	      0.00000000
      0.80000000	     -2.90209143	     10.80282726	    -89.89528447	      0.17080062	      0.94630690	      0.19264115	     -9.91816530	      6.49079787	      0.99566870	      8.34095544	      0.14557714	     13.55587369	      0.00000000	      0.00000000	     34.51999584	     -1.30436653	     -1.10502412	     -1.66747339	     -0.02910290	     -3.06825141	      0.00000000	      0.00000000	      1.93849381	      0.17576885	      1.27420590	      0.00000000	      0.00000000	      0.00000000	      0.00000000	      0.00000000	      0.00000000	      0.00000000	      0.00000000	      0.00000000	      0.00000000	      0.00000000	      0.00000000	      0.00000000	      0.00000000
      0.81000000	     -2.29331153	     10.84890992	    -89.89146018	      0.17210156	      0.94629107	      0.20918565	     -9.67169351	      5.69188995	      0.70707228	     10.36894678	      0.18097226	     12.36455611	      0.00000000	      0.00000000	     34.41980315	     -0.52842259	     -1.26562547	     -0.54216656	     -0.00946259	     -4.64405582	      0.00000000	      0.00000000	      2.04668173	     -0.56647263	      1.14684058	      0.00000000	      0.00000000	      0.00000000	      0.00000000	      0.00000000	      0.00000000	      0.00000000	      0.00000000	      0.00000000	      0.00000000	      0.00000000	      0.00000000	      0.00000000	      0.00000000
      0.82000000	     -1.63525633	     10.84076727	    -89.88600926	      0.17343584	      0.94678133	      0.22579842	     -9.26184549	      4.82565911	      0.29285434	     12.69784588	      0.22161922	     10.79945773	      0.00000000	      0.00000000	     34.27529775	      0.25753147	     -1.42068022	      0.75386542	      0.01315743	     -6.28887907	      0.00000000	      0.00000000	      2.09320124	     -1.36378447	      0.97471073	      0.00000000	      0.00000000	      0.00000000	      0.00000000	      0.00000000	      0.00000000	      0.00000000	      0.00000000	      0.00000000	      0.00000000	      0.00000000	      0.00000000	      0.00000000	      0.00000000
      0.83000000	     -0.93513265	     10.78058444	    -89.87903061	      0.17480994	      0.94774061	      0.24247071	     -8.66916887	      3.89292908	     -0.18964599	     15.35391218	      0.26797632	      8.82062365	      0.00000000	      0.00000000	     34.07272819	      1.04608959	     -1.60998579	      2.14640942	      0.03746191	     -7.83895081	     -0.00000000	      0.00000000	      2.08947580	     -2.20326203	      0.79225975	     -0.00000000	      0.00000000	     -0.00000000	      0.00000000	      0.00000000	      0.00000000	      0.00000000	     -0.00000000	      0.00000000	     -0.00000000	      0.00000000	      0.00000000	      0.00000000	     -0.00000000
      0.84000000	     -0.22555402	     10.65919318	    -89.87040927	      0.17622254	      0.94915263	      0.25914242	     -7.89463664	      2.91410897	     -0.75898556	     18.33290804	      0.31996961	      6.36201824	      0.00000000	      0.00000000	     33.79557142	      1.80790586	     -1.80535475	      3.59034231	      0.06266329	     -9.13213539	      0.00000000	      0.00000000	      2.01265919	     -3.04009742	      0.61056433	      0.00000000	      0.00000000	      0.00000000	      0.00000000	      0.00000000	      0.00000000	      0.00000000	      0.00000000	      0.00000000	      0.00000000	      0.00000000	      0.00000000	      0.00000000	      0.00000000
      0.85000000	      0.49291006	     10.48740631	    -89.85943031	      0.17763949	      0.95092540	      0.27576502	     -6.92978316	      1.89067210	     -1.35553748	     21.61549439	      0.37726155	      3.51710275	      0.00000000	      0.00000000	     33.46060008	      2.54957925	     -2.00064707	      5.07514615	      0.08857801	    -10.09449902	      0.00000000	      0.00000000	      1.88114412	     -3.88348329	      0.39516297	      0.00000000	      0.00000000	      0.00000000	      0.00000000	      0.00000000	      0.00000000	      0.00000000	      0.00000000	      0.00000000	      0.00000000	      0.00000000	      0.00000000	      0.00000000	      0.00000000
      0.86000000	      1.24110357	     10.31911985	    -89.84646485	      0.17910924	      0.95293620	      0.29226607	     -5.73181805	      0.80209640	     -1.91236041	     25.16204083	      0.43916046	      0.33840471	      0.00000000	      0.00000000	     33.12874079	      3.30323705	     -2.17832650	      6.59083088	      0.11503170	    -10.69574071	      0.00000000	      0.00000000	      1.75370957	     -4.75024564	      0.13475958	      0.00000000	      0.00000000	      0.00000000	      0.00000000	      0.00000000	      0.00000000	      0.00000000	      0.00000000	      0.00000000	      0.00000000	      0.00000000	      0.00000000	      0.00000000	      0.00000000
      0.87000000	      1.94783308	     10.11383348	    -89.83019165	      0.18058783	      0.95517927	      0.30859809	     -4.35841762	     -0.27859001	     -2.41325954	     28.91734566	      0.50470289	     -3.09152159	      0.00000000	      0.00000000	     32.72544514	      4.00984131	     -2.31601505	      8.06162185	      0.14070184	    -10.86957395	      0.00000000	      0.00000000	      1.56634531	     -5.55018758	     -0.13613349	      0.00000000	      0.00000000	      0.00000000	      0.00000000	      0.00000000	      0.00000000	      0.00000000	      0.00000000	      0.00000000	      0.00000000	      0.00000000	      0.00000000	      0.00000000	      0.00000000
      0.88000000	      2.55955896	     10.04400813	    -89.81473858	      0.18203512	      0.95732423	      0.32457840	     -2.61977375	     -1.26248020	     -2.72569067	     32.87325754	      0.57374658	     -6.47862597	      0.00000000	      0.00000000	     32.47293747	      4.61899086	     -2.42644809	      9.54284373	      0.16655404	    -10.67858120	      0.00000000	      0.00000000	      1.53140334	     -6.22651091	     -0.37836935	      0.00000000	      0.00000000	      0.00000000	      0.00000000	      0.00000000	      0.00000000	      0.00000000	      0.00000000	      0.00000000	      0.00000000	      0.00000000	      0.00000000	      0.00000000	      0.00000000
      0.89000000	      3.21303031	      9.70189380	    -89.79685112	      0.18352781	      0.95997649	      0.34061638	     -1.11941484	     -2.28625472	     -2.91149364	     36.73188857	      0.64109240	     -9.86424330	      0.00000000	      0.00000000	     31.77378940	      5.30042184	     -2.46394563	     10.77229513	      0.18801202	    -10.15716171	      0.00000000	      0.00000000	      1.19269167	     -6.92767005	     -0.63757091	      0.00000000	      0.00000000	      0.00000000	      0.00000000	      0.00000000	      0.00000000	      0.00000000	      0.00000000	      0.00000000	      0.00000000	      0.00000000	      0.00000000	      0.00000000	      0.00000000
      0.90000000	      3.68242817	      9.72682681	    -89.77700279	      0.18491650	      0.96211226	      0.35598259	      0.97983989	     -3.09430232	     -2.94102898	     40.68841749	      0.71014685	    -12.68743821	      0.00000000	      0.00000000	     31.48730639	      5.80786757	     -2.42232297	     11.99742944	      0.20939465	     -9.41124783	      0.00000000	      0.00000000	      1.23905059	     -7.41882873	     -0.96924774	      0.00000000	      0.00000000	      0.00000000	      0.00000000	      0.00000000	      0.00000000	      0.00000000	      0.00000000	      0.00000000	      0.00000000	      0.00000000	      0.00000000	      0.00000000	      0.00000000
      0.91000000	      4.12112367	      9.59074327	    -89.75967828	      0.18628569	      0.96455517	      0.37127466	      2.91778041	     -3.84217903	     -2.86976373	     44.42065538	      0.77528669	    -15.03929454	      0.00000000	      0.00000000	     30.86418624	      6.31522013	     -2.35369864	     12.93777042	      0.22580669	     -8.48194920	      0.00000000	      0.00000000	      1.10540351	     -7.85364712	     -1.25524298	      0.00000000	      0.00000000	      0.00000000	      0.00000000	      0.00000000	      0.00000000	      0.00000000	      0.00000000	      0.00000000	      0.00000000	      0.00000000	      0.00000000	      0.00000000	      0.00000000
      0.92000000	      4.51809504	      9.29345271	    -89.73946078	      0.18763905	      0.96731222	      0.38648420	      4.66145433	     -4.52838225	     -2.76233400	     47.86204625	      0.83535029	    -16.79579702	      0.00000000	      0.00000000	     29.90302799	      6.81566755	     -2.24236330	     13.58438043	      0.23709217	     -7.45001789	      0.00000000	      0.00000000	      0.79508014	     -8.23164664	     -1.53204039	      0.00000000	      0.00000000	      0.00000000	      0.00000000	      0.00000000	      0.00000000	      0.00000000	      0.00000000	      0.00000000	      0.00000000	      0.00000000	      0.00000000	      0.00000000	      0.00000000
      0.93000000	      4.78422699	      9.19465702	    -89.72028961	      0.18894305	      0.96980444	      0.40124383	      6.67684528	     -5.04452915	     -2.59935880	     51.10825862	      0.89200739	    -17.63464561	      0.00000000	      0.00000000	     29.06809390	      7.20653524	     -2.08290755	     14.04727470	      0.24517119	     -6.40854289	      0.00000000	      0.00000000	      0.69325157	     -8.43529894	     -1.82718094	      0.00000000	      0.00000000	      0.00000000	      0.00000000	      0.00000000	      0.00000000	      0.00000000	      0.00000000	      0.00000000	      0.00000000	      0.00000000	      0.00000000	      0.00000000	      0.00000000
      0.94000000	      4.93860970	      9.06391150	    -89.69820114	      0.19015515	      0.97242512	      0.41583336	      8.62469727	     -5.41197487	     -2.43609732	     54.00965457	      0.94264630	    -17.79050418	      0.00000000	      0.00000000	     28.05094216	      7.49794491	     -1.90291252	     14.23778750	      0.24849627	     -5.37607379	      0.00000000	      0.00000000	      0.57109935	     -8.51932628	     -2.09013084	      0.00000000	      0.00000000	      0.00000000	      0.00000000	      0.00000000	      0.00000000	      0.00000000	      0.00000000	      0.00000000	      0.00000000	      0.00000000	      0.00000000	      0.00000000	      0.00000000
